<?xml version="1.0" standalone="no"?>
<!DOCTYPE svg PUBLIC "-//W3C//DTD SVG 20010904//EN"
 "http://www.w3.org/TR/2001/REC-SVG-20010904/DTD/svg10.dtd">
<svg version="1.0" xmlns="http://www.w3.org/2000/svg"
 width="300.000000pt" height="300.000000pt" viewBox="0 0 300.000000 300.000000"
 preserveAspectRatio="xMidYMid meet">
<metadata>
Created by potrace 1.11, written by Peter Selinger 2001-2013
</metadata>
<g transform="translate(0.000000,300.000000) scale(0.100000,-0.100000)"
fill="#000000" stroke="none">
<path d="M251 2834 c-51 -28 -65 -43 -91 -99 -19 -39 -20 -76 -20 -1240 0
-1190 0 -1201 21 -1239 26 -49 55 -77 102 -98 35 -17 118 -18 1242 -18 l1205
0 48 30 c33 20 57 45 75 79 l27 49 0 1201 c0 1200 0 1201 -21 1244 -25 49 -65
84 -117 103 -30 11 -271 13 -1232 13 l-1195 1 -44 -26z"/>
</g>
</svg>
